<svg xmlns="http://www.w3.org/2000/svg" version="1.2" baseProfile="tiny" width="456" height="336" viewBox="36 36 228 168"><circle cx="100" cy="100" r="60" stroke-width="4" stroke="black" fill="rgb(128,224,255)" fill-opacity="1" ></circle><path d="m 80,100 20,20 20,-20 -10,0 0,-20 -20,0 0,20 z" stroke-width="3" stroke="black" fill="black" ></path><g transform="translate(180,140)" ><g transform="scale(0.09)" ><path d="M0 0h640v480H0z" stroke-width="4" stroke="rgba(0,0,0,0)" fill="#AA151B" ></path><path d="M0 120h640v240H0z" stroke-width="4" stroke="rgba(0,0,0,0)" fill="#F1BF00" ></path><path d="M192.6 162.4c-.5 0-1 .5-1 1h.1a1 1 0 0 0 1 1c.6 0 1-.5 1-1s-.4-1-1.1-1m26.7 0c-.5 0-1 .5-1 1a1 1 0 0 0 1.1 1c.5 0 1-.5 1-1s-.5-1-1.1-1m-23.4.1c-.6 0-1 .4-1 1a1 1 0 0 0 1 1c.6 0 1-.5 1-1 0-.6-.4-1-1-1m20.2 0c-.6 0-1.1.4-1.1 1h.1a1 1 0 0 0 1 1c.6 0 1-.5 1-1 0-.6-.4-1-1-1m-26.8.5a1 1 0 0 0-1 1h.1c0 .5.4 1 1 1s1-.5 1-1c0-.6-.4-1-1.1-1m9.9 0c-.5 0-1 .5-1 1h.1a1 1 0 0 0 1 1c.6 0 1-.5 1-1s-.4-1-1.1-1m13.5 0c-.5 0-1 .5-1 1h.1a1 1 0 0 0 1 1c.6 0 1-.5 1-1s-.4-1-1.1-1m9.9 0a1 1 0 0 0-1 1c0 .5.5 1 1.1 1 .5 0 1-.5 1-1 0-.6-.5-1-1.1-1m-36.4 1c-.6 0-1 .4-1 1a1 1 0 0 0 1 1c.6 0 1-.4 1-1s-.4-1-1-1m39.6 0c-.6 0-1 .4-1 1a1 1 0 0 0 1 1c.6 0 1-.4 1-1s-.4-1-1-1m-23.5.1c-.5 0-1 .5-1 1h.1a1 1 0 0 0 1 1c.6 0 1-.5 1-1s-.4-1-1.1-1m7.3 0c-.5 0-1 .5-1 1a1 1 0 0 0 1.1 1c.5 0 1-.5 1-1s-.5-1-1.1-1m-26.3 1.4c-.5 0-1 .5-1 1a1 1 0 0 0 1 1 1 1 0 0 0 0-2m45.4 0c-.6 0-1.1.5-1.1 1h.1a1 1 0 0 0 1 1 1 1 0 0 0 0-2m-54.36 1.8a1 1 0 0 0-.94 1 1 1 0 0 0 1 1 1 1 0 0 0 0-2zm63.2 0a1 1 0 0 0-.94 1 1 1 0 0 0 1 1 1 1 0 0 0 0-2zm-31.54.1c-.4 0-.8.3-.8.8a.8.8 0 0 0 .8.8c.5 0 .9-.4.9-.8 0-.5-.4-.8-.9-.8m-34.9.1c-.6 0-1.1.5-1.1 1h.1c0 .6.4 1 1 1a1 1 0 0 0 0-2m6.5 0a1 1 0 0 0-1 1 1 1 0 0 0 1.1 1c.5 0 1-.4 1-1s-.5-1-1.1-1m3.2 0a1 1 0 0 0-1 1h.1a1 1 0 0 0 1 1c.6 0 1.1-.4 1.1-1s-.5-1-1.2-1m50.3 0a1 1 0 0 0-1 1 1 1 0 0 0 1.1 1c.5 0 1-.4 1-1s-.5-1-1.1-1m3.2 0a1 1 0 0 0-1 1h.1a1 1 0 0 0 1 1c.6 0 1-.4 1-1s-.4-1-1.1-1m6.6 0a1 1 0 0 0-1 1 1 1 0 0 0 1 1 1 1 0 0 0 0-2m-73.3.6c-.5 0-1 .5-1 1a1 1 0 0 0 1 1 1 1 0 0 0 0-2m76.8 0c-.6 0-1.1.5-1.1 1h.1a1 1 0 0 0 1 1 1 1 0 0 0 0-2m-79.95 1.2c-.57.02-.95.42-.95 1a1 1 0 0 0 1 1c.6 0 1-.4 1-1s-.4-1-1-1zm83 0c-.57.02-.95.42-.95 1a1 1 0 0 0 1 1c.6 0 1-.4 1-1s-.4-1-1-1zM206 170a1 1 0 0 0-1 1 1 1 0 0 0 1 1 1 1 0 0 0 0-2m-26.8.2c-.5 0-1 .5-1 1h.1a1 1 0 0 0 1 1c.6 0 1-.5 1-1s-.4-1-1.1-1m53.5 0c-.5 0-1 .5-1 1h.1a1 1 0 0 0 1 1c.6 0 1-.5 1-1s-.4-1-1.1-1m-71.25.6a1 1 0 0 0-.95 1 1 1 0 0 0 1 1 1 1 0 0 0 0-2zm89 0c-.58.03-1.05.52-1.05 1h.1c0 .6.4 1 1 1a1 1 0 0 0 0-2zm-91.5 2c-.57.02-.95.42-.95 1a1 1 0 0 0 1 1c.6 0 1-.4 1-1s-.4-1-1-1zm94 0c-.57.02-.95.42-.95 1a1 1 0 0 0 1 1c.6 0 1-.4 1-1s-.4-1-1-1zM206 173c-.8 0-1.4.6-1.4 1.3 0 .8.6 1.4 1.4 1.4.8 0 1.5-.6 1.5-1.4 0-.7-.7-1.3-1.5-1.3m-27.4.3c-.6 0-1 .4-1 1a1 1 0 0 0 1 1c.6 0 1-.5 1-1 0-.6-.4-1-1-1m54.8 0c-.6 0-1 .4-1 1a1 1 0 0 0 1 1c.6 0 1-.5 1-1 0-.6-.4-1-1-1m-76.6 1.8c-.5 0-1 .5-1 1h.1a1 1 0 0 0 1 1c.5 0 1-.5 1-1s-.5-1-1.1-1m98.3 0c-.5 0-1 .5-1 1h.1a1 1 0 0 0 1 1c.6 0 1-.5 1-1s-.4-1-1.1-1m-49.1 1.1c-1 0-1.8.8-1.8 1.8a1.8 1.8 0 0 0 1.38 1.65c-.8.18-1.38.9-1.38 1.75a1.8 1.8 0 0 0 1.8 1.7c1 0 1.9-.7 1.9-1.7 0-.85-.65-1.56-1.46-1.75.81-.17 1.46-.8 1.46-1.65 0-1-.9-1.8-1.9-1.8m-27.6.1c-.5 0-1 .5-1 1h.1a1 1 0 0 0 1 1c.6 0 1-.5 1-1s-.4-1-1.1-1m55.1 0c-.5 0-1.1.5-1.1 1h.1a1 1 0 0 0 1 1 1 1 0 0 0 0-2m-78.3 1.7a1 1 0 0 0-1 1 1 1 0 0 0 1 1c.6 0 1-.4 1-1s-.4-1-1-1m101.5 0a1 1 0 0 0-1 1h.1a1 1 0 0 0 1 1c.6 0 1.1-.4 1.1-1s-.5-1-1.2-1m-77.3 1.1c-.5 0-1 .5-1 1a1 1 0 0 0 1.1 1c.5 0 1-.4 1-1 0-.5-.5-1-1.1-1m53.1 0c-.5 0-1 .5-1 1h.1a1 1 0 0 0 1 1c.6 0 1-.4 1-1 0-.5-.4-1-1.1-1m-78.1 1.9c-.5 0-1 .5-1 1h.1a1 1 0 0 0 1 1c.5 0 1-.4 1-1 0-.5-.5-1-1.1-1m103.1 0c-.5 0-1 .5-1 1h.1a1 1 0 0 0 1 1c.5 0 1-.4 1-1 0-.5-.5-1-1.1-1m-76.3.7c-.5 0-1 .5-1 1a1 1 0 0 0 1 1 1 1 0 0 0 0-2m49.5 0c-.5 0-1 .5-1 1h.1c0 .6.4 1 1 1s1.1-.5 1.1-1-.5-1-1.2-1m-76.2 2.5c-.5 0-1 .5-1 1h.1a1 1 0 0 0 1 1c.6 0 1-.5 1-1s-.4-1-1.1-1m102.9 0c-.5 0-1 .5-1 1a1 1 0 0 0 1.1 1c.5 0 1-.5 1-1s-.5-1-1.1-1m-101.9 3a1 1 0 0 0-1 1 1 1 0 0 0 1 1c.6 0 1-.4 1-1s-.4-1-1-1m101 0c-.6 0-1.1.4-1.1 1h.1a1 1 0 0 0 1 1c.6 0 1-.4 1-1s-.4-1-1-1m-99.5 2.5a1 1 0 0 0-1 1 1 1 0 0 0 1 1c.6 0 1-.4 1-1 0-.5-.4-1-1-1m98 0c-.5 0-1 .5-1 1h.1a1 1 0 0 0 1 1c.5 0 1-.4 1-1 0-.5-.5-1-1.1-1m-59.58 2.4h-.22c-.6 0-1 .8-1 1.6h.1c.1.8.6 1.4 1.2 1.4.6-.1 1-.8.9-1.6-.09-.79-.48-1.35-.98-1.4m21.5 0c-.44.05-.84.61-1.02 1.4-.1.8.3 1.5.9 1.6.6 0 1.2-.6 1.3-1.4 0-.8-.3-1.6-1-1.6a.55.55 0 0 0-.19 0m-42.4 3.76a.84.84 0 0 0-.22.04c-.6.2-.8 1-.6 1.8.3.8 1 1.3 1.6 1.1.5-.2.8-1 .5-1.8-.26-.7-.76-1.17-1.28-1.14m63.28 0c-.47-.03-1.04.44-1.3 1.14-.3.8 0 1.6.6 1.8.5.2 1.2-.3 1.5-1.1.3-.8 0-1.6-.6-1.8a.62.62 0 0 0-.2-.04m-39.85 7.94a1 1 0 0 0-.95 1 1 1 0 0 0 1 1c.6 0 1-.5 1-1s-.5-1-1-1zm16.35 0a1 1 0 0 0-1 1 1 1 0 0 0 1 1 1 1 0 0 0 0-2m-32.2 1.9c-.6 0-1.1.4-1.1 1h.1a1 1 0 0 0 1 1c.6 0 1-.5 1-1 0-.6-.4-1-1-1m48 0a1 1 0 0 0-1 1h.1a1 1 0 0 0 1 1c.6 0 1-.5 1-1 0-.6-.5-1-1.1-1m41.58 2.3c-.2.01-.38.2-.38.4a.4.4 0 0 0 .4.4.4.4 0 0 0 .4-.4c0-.2-.2-.4-.4-.4zm12.2 0c-.2.01-.38.2-.38.4a.4.4 0 0 0 .4.4c.3 0 .5-.2.5-.4s-.3-.4-.5-.4zm-146.78 5.99a.4.4 0 0 0-.1.01c-.2 0-.4.1-.4.4a.4.4 0 0 0 .4.4.4.4 0 0 0 .5-.4.4.4 0 0 0-.4-.41m-4.83.01c-.28 0-.47.11-.47.4a.4.4 0 0 0 .5.4c.2 0 .4-.2.4-.4a.4.4 0 0 0-.4-.4zm143.2 0c-.28 0-.47.11-.47.4 0 .2.2.4.5.4a.4.4 0 0 0 .4-.4.4.4 0 0 0-.4-.4zm4.71 0c-.2 0-.38.11-.38.4a.4.4 0 0 0 .4.4c.3 0 .5-.2.5-.4 0-.3-.2-.4-.5-.4z" stroke-width="4" stroke="rgba(0,0,0,0)" fill="#fff" ></path><path d="M206.1 156.6c-2.4 0-4.3 1.8-4.3 4a4.1 4.1 0 0 0 4.2 4c2.4 0 4.3-1.8 4.3-4s-1.8-4-4.2-4m.3 100.3c-6 0-11 5.8-11 12.8 0 7.2 5 13 11 13s11-5.8 11-13c0-7.1-5-12.8-11-12.8m-79.2 58.9a8 8 0 0 0-3.7.8 8.3 8.3 0 0 1-3.8.8v2.4c1.5 0 2.8-.4 3.8-.9a8.2 8.2 0 0 1 3.7-.8c1.4 0 2.7.3 3.7.8s2.2.9 3.7.9a8.4 8.4 0 0 0 3.8-.9c1-.5 2.3-.8 3.7-.8 1.5 0 2.8.3 3.8.8s2.2.9 3.7.9v-2.4c-1.4 0-2.8-.3-3.7-.8a8.4 8.4 0 0 0-3.8-.8c-1.4 0-2.7.3-3.7.8a8.3 8.3 0 0 1-3.8.8c-1.5 0-2.8-.3-3.7-.8a8.4 8.4 0 0 0-3.7-.8m143.2 0a8.4 8.4 0 0 0-3.7.8c-1 .5-2.3.8-3.7.8h-.1v2.4c1.5 0 2.8-.4 3.8-.9a8.3 8.3 0 0 1 3.7-.8 8.4 8.4 0 0 1 3.8.8 8 8 0 0 0 3.7.9c1.5 0 2.8-.4 3.8-.9.9-.5 2.2-.8 3.6-.8a8.2 8.2 0 0 1 3.7.8 8.3 8.3 0 0 0 3.8.9v-2.4c-1.4 0-2.8-.3-3.8-.8a8 8 0 0 0-3.7-.8 8.4 8.4 0 0 0-3.6.8c-1 .5-2.3.8-3.8.8-1.4 0-2.7-.3-3.7-.8s-2.4-.8-3.8-.8m-143.2 4.6a8 8 0 0 0-3.7.8c-1 .5-2.3.9-3.8.9v2.3c1.5 0 2.8-.3 3.8-.9a10.2 10.2 0 0 1 7.4 0 7 7 0 0 0 3.7.9 8.4 8.4 0 0 0 3.8-.8c1-.5 2.3-.8 3.7-.8 1.5 0 2.8.3 3.8.8s2.2.8 3.7.8V322a7 7 0 0 1-3.7-.8 8.3 8.3 0 0 0-3.8-.7c-1.4 0-2.7.2-3.7.7-1 .6-2.3.9-3.8.9s-2.8-.4-3.7-.9a8.4 8.4 0 0 0-3.7-.8m158.1 0a8.4 8.4 0 0 0-3.6.8 8.2 8.2 0 0 1-3.8.9c-1.4 0-2.7-.4-3.7-.9s-2.4-.7-3.8-.7-2.7.3-3.7.7c-1 .6-2.3.8-3.7.8h-.1v2.4c1.5 0 2.8-.3 3.8-.8a8.3 8.3 0 0 1 3.7-.8 8.4 8.4 0 0 1 3.8.8c.9.5 2.3.8 3.7.8 1.5 0 2.8-.3 3.8-.9.9-.4 2.2-.7 3.6-.7a8.2 8.2 0 0 1 3.7.7 8.3 8.3 0 0 0 3.8.9v-2.3c-1.4 0-2.8-.4-3.8-.9a8 8 0 0 0-3.7-.8m-158.1 4.7c-1.4 0-2.7.3-3.7.8a8.3 8.3 0 0 1-3.8.8v2.3c1.5 0 2.8-.3 3.8-.8s2.3-.8 3.7-.8a8.4 8.4 0 0 1 3.7.7 7 7 0 0 0 3.7.9c1.5 0 2.8-.3 3.8-.8a8.4 8.4 0 0 1 3.8-.8c1.4 0 2.7.3 3.7.8a8.1 8.1 0 0 0 3.7.8v-2.3c-1.5 0-2.7-.3-3.7-.8s-2.3-.8-3.7-.8c-1.5 0-2.8.3-3.8.7a8.4 8.4 0 0 1-7.5 0c-1-.4-2.3-.7-3.7-.7m143.2 0c-1.4 0-2.7.3-3.7.8s-2.3.8-3.8.8v2.3h.1a8.1 8.1 0 0 0 3.7-.8c1-.5 2.3-.8 3.7-.8 1.4 0 2.8.3 3.8.8s2.3.8 3.7.8a8.2 8.2 0 0 0 3.8-.9 8.4 8.4 0 0 1 3.6-.7c1.5 0 2.8.3 3.7.8 1 .5 2.4.8 3.8.8v-2.3a8.3 8.3 0 0 1-3.8-.8 8.2 8.2 0 0 0-3.7-.8 8.4 8.4 0 0 0-3.6.7 8.2 8.2 0 0 1-3.8.9c-1.4 0-2.8-.3-3.7-.8-1-.5-2.3-.8-3.8-.8" stroke-width="4" stroke="rgba(0,0,0,0)" fill="#005bbf" ></path><path d="M206.3 216.5v35.7h.1c8.6 0 15.6 7.9 15.6 17.6 0 9.7-7 17.5-15.6 17.5-8.54 0-15.5-7.7-15.6-17.3h-32.6v32a22.7 22.7 0 0 0 12.8 20.4 82 82 0 0 0 35.5 8.2 81 81 0 0 0 35.3-8.2 22.7 22.7 0 0 0 12.8-20.4v-85.5zM126.8 229v76.6h15.6V229zm143.3 0v76.6h15.6V229zm-142.9 89.1a8.2 8.2 0 0 0-3.7.8c-1 .5-2.3.9-3.8.9v2.3c1.5 0 2.8-.4 3.8-.9a8.1 8.1 0 0 1 3.7-.7c1.4 0 2.7.2 3.7.7a8.3 8.3 0 0 0 7.5 0 8.5 8.5 0 0 1 7.5.1 8.1 8.1 0 0 0 3.7.8v-2.3a8 8 0 0 1-3.7-.9 8.3 8.3 0 0 0-3.8-.8c-1.4 0-2.7.3-3.7.8s-2.3.9-3.8.9-2.8-.4-3.7-.9a8.4 8.4 0 0 0-3.7-.8m143.2 0c-1.4 0-2.7.3-3.7.8s-2.3.9-3.7.9h-.1v2.3a8.1 8.1 0 0 0 3.8-.9 8.3 8.3 0 0 1 3.7-.7c1.5 0 2.8.3 3.8.7a7 7 0 0 0 3.7.9c1.5 0 2.8-.4 3.8-.9.9-.5 2.2-.7 3.6-.7a8.1 8.1 0 0 1 3.7.7 8.3 8.3 0 0 0 3.8.9v-2.3c-1.4 0-2.8-.4-3.8-.9-.9-.5-2.2-.8-3.7-.8a8.4 8.4 0 0 0-3.6.8 8.2 8.2 0 0 1-3.8.9c-1.4 0-2.7-.4-3.7-.9s-2.4-.8-3.8-.8m-128.2 4.7c-1.5 0-2.8.3-3.8.8a8.4 8.4 0 0 1-3.8.8 8 8 0 0 1-3.7-.9 10.2 10.2 0 0 0-7.4 0 8.3 8.3 0 0 1-3.8.9v2.3c1.5 0 2.8-.3 3.8-.8s2.3-.8 3.7-.8a8.4 8.4 0 0 1 3.7.7 7 7 0 0 0 3.7.9c1.5 0 2.8-.3 3.8-.8a8.4 8.4 0 0 1 3.8-.8c1.4 0 2.7.3 3.7.8a8 8 0 0 0 3.7.8v-2.3c-1.4 0-2.7-.3-3.7-.8s-2.3-.8-3.7-.8m128.2 0a8.3 8.3 0 0 0-3.7.8c-1 .5-2.3.8-3.8.8v2.3h.1a8 8 0 0 0 3.7-.8c1-.5 2.3-.8 3.7-.8 1.4 0 2.8.3 3.8.8s2.3.8 3.7.8c1.5 0 2.8-.3 3.8-.9a8.4 8.4 0 0 1 3.6-.7c1.5 0 2.8.3 3.7.8a8.3 8.3 0 0 0 3.8.8v-2.3a8.3 8.3 0 0 1-3.8-.9 8.2 8.2 0 0 0-3.7-.7c-1.4 0-2.7.3-3.6.7-1 .5-2.3.9-3.8.9-1.4 0-2.8-.3-3.7-.8a8.4 8.4 0 0 0-3.8-.8" stroke-width="4" stroke="rgba(0,0,0,0)" fill="#ccc" ></path><path d="M205.7 175.4c-6.5 0-11.8 1-15.5 2.5a30 30 0 0 1-8 2c-2.4.3-4.6.4-6.6.2a26 26 0 0 0-10.2 2.4 27.6 27.6 0 0 0-7.5 4.7l1.5 1.4.5 3.8 4.1 4.7 2 1.7 4.9 4 2.5.2.8 2.1 31.7-3.7 31.6 3.7.7-2.1 2.5-.2 5-3.9 2-1.8 4.1-4.7.4-3.8 1.5-1.4a27.3 27.3 0 0 0-7.4-4.7c-3.8-1.6-7.6-2.4-10.3-2.4a31.7 31.7 0 0 1-14.6-2.3c-3.7-1.4-9.4-2.4-15.7-2.4m-74.2 30.2-1 .2c-.3.2-.8.2-1 .2l-.5.3-1.3.3-1 .4a12 12 0 0 0-1.5.5c-.5.3-1.1.6-1.4 1.5-.3.9.4 2 .4 2l.6.8.7.4 1 1 .8.1v.1s4.5-.9 7.3-.9 7.2.8 7.6.8c.5.1 1-.4 1-.4l.8-.6.6-1 .5-.8v-1.1l-.5-1c-.2-.3-.6-.7-1.1-1-.6-.3-1.7-.5-2.2-.6a35 35 0 0 1-2-.7c-.2-.1-1-.4-1.4-.4h-4.8zm143.4 2.3c-1.3 0-2.5.3-3 .8a3.9 3.9 0 0 0-2 0c-1.4.3-2.3 1.1-2.2 1.7v.5l.4 1 .5.3.7.7.6.4h.4c.4-.2.7-.6.7-.6s.5.3 1.1.3l1-1s.8.7 1.4.6c.5-.1 1-.6 1-.6s.6.5 1.1.5c.6-.1 1.3-.9 1.3-.9s.7.8 1.2.9c.5.1 1.2-.5 1.2-.5s.4.5 1 .6c.5.1 1.4-.7 1.4-.7s.5.8 1 1c.4.2 1-.2 1-.2s.3.4.7.5c.1.2.4 0 .4 0l.6-.3.6-.7.6-.3.4-1v-.5c.1-.7-.8-1.4-2.2-1.7-.8-.2-1.5-.2-2 0-.5-.5-1.7-.8-3-.8a5.5 5.5 0 0 0-2.9.7c-.6-.4-1.7-.7-3-.7m-141.2 6-.3.3c0 .3.2.3.3.3h1.9a.3.3 0 0 0 .3-.3.3.3 0 0 0-.2-.3zm24.3 2.6v31.7c-3.43-1.24-9.08-2-15.5-2a43 43 0 0 0-9.2.7c-10.4 1.7-18.2 5.9-17.6 9.2l3.5 8.2v-.2c.3 1.8 3.3 2.9 7.6 3.2v-7.4c-1.3 0-2.6-.2-3.8-.3-1.13.65-2.04 1.3-2.7 1.95 2.28-2.37 7.9-4.68 14.8-5.85a49.6 49.6 0 0 1 22.9 1.89V270h.1v31.9c0 12.7 10.9 23 24.2 23 13.3 0 24-10.3 24-22.9v-.1c0 12.7 10.9 23 24.2 23 13.3 0 24.1-10.3 24.1-22.9v-32.1H222v-.1c0-9.7-7-17.6-15.6-17.6h-.1v-35.7zm112.1 29.7c-6.7 0-12.4.8-15.9 2.1v9.4a49.6 49.6 0 0 1 23.3-2c4.92.84 9.2 2.28 12.1 3.9-1.2.1-2.5.3-3.9.3v7.4c4.4-.3 7.3-1.4 7.7-3.2v.2l3.5-8.2c.6-3.3-7.3-7.5-17.6-9.2a53.5 53.5 0 0 0-9.2-.7m19.69 13.51c2.35 1.36 3.71 2.83 3.63 4.2.06-1.4-1.26-2.8-3.63-4.2M142.4 261.5v7.5c3.17-1.9 5.33-3.55 5.84-4.65-.83 1.87-6.35 5.44-13.54 8.65l-7.8 3.2c-6 2.2-10.2 4.6-9.8 5.8v.1l1.47 7.54a.5.5 0 0 0 .03.26c0 .6.8 1 1.8 1.6 1.5 1.1 2.5 3 1.7 4a5.5 5.5 0 0 0-.09-8.79 25.1 25.1 0 0 1 4.89-2.21c2.4-1 7.5-2.8 10-4 7.6-3.6 13.2-7.8 12.4-9.1 0 0-.6-7.6-1-8v.2l-.1-.2c-1-.9-3-1.5-5.7-1.9zm127.6 0a13 13 0 0 0-5.7 1.9c-.4.4-1 8-1 8-.8 1.3 4.8 5.5 12.4 9.1 2.4 1.2 7.6 3 10 4 1.74.57 3.43 1.39 4.88 2.22a5.5 5.5 0 0 0-.18 8.78c-.7-1 .2-2.9 1.8-4 1-.6 1.7-1 1.8-1.6a.5.5 0 0 0 .02-.17v-.05.04c-.03-.35-.4-.82-.97-1.33.58.51.98.97.97 1.29l1.38-7.58v-.1c.4-1.2-3.8-3.6-9.7-5.8-2.8-1-5-2-7.8-3.2a74.94 74.94 0 0 1-7.8-4.01v-7.49zm-2.21 6.03c.47.32 1.04.67 1.6 1.02-.56-.35-1.13-.7-1.6-1.02M291 286.96" stroke-width="4" stroke="rgba(0,0,0,0)" fill="#ad1519" ></path><path d="M205 149.3v2.2h-2.4v2.2h2.3v6.3H202l-.2.6c0 .6.1 1.1.3 1.6h7.9c.2-.5.3-1 .3-1.6l-.2-.6h-2.8v-6.3h2.3v-2.2h-2.3v-2.2zm1 15.1c-1.7 0-3.2 1.1-3.5 2.6l-.05.38a17.4 17.4 0 0 0-8.65-2.08c-4.1 0-7.72 1.27-10.18 3.24a12 12 0 0 0-3.25 2.72l.33-.46c-1.9-.4-3.9-.6-5.9-.6-4.77 0-9.07 1.18-12.1 3.1l-.42.27v.01c-3.65 2.3-5.98 5.67-5.98 9.52a10.4 10.4 0 0 0 2.29 6.49l-.19.31 1.3 1 2.6-4.1a7.3 7.3 0 0 1-2.7-5.6 7 7 0 0 1 .7-3.1c1.7-3.6 7.5-6.3 14.5-6.3a25.5 25.5 0 0 1 4.9.4 7.97 7.97 0 0 0-1.3 4.3 9.3 9.3 0 0 0 3.93 7.25l-.03.05.3.21a4.9 4.9 0 0 0-1 3.39s-.2-.2-.8-.2c-.6-.2-1.1 0-1.1 0l.7 1.1 1.1 2c.5.7 1.2 1.3 1.2 1.3a1.8 1.8 0 0 1 1.2-.9 1.9 1.9 0 0 1 1.5.4 7.4 7.4 0 0 0 .7-1.6l.3-2.2.1-1.3s-.4 0-1 .3-.6.6-.6.6a5.1 5.1 0 0 0-1.31-2.18l.1.08 2-3.2a7.4 7.4 0 0 1-3.59-7.2c.2-4.1 5.2-7.6 11.7-7.6 3.26 0 6.23.98 8.43 2.35-.08.76-.13 1.54-.13 2.35v1.1c-.1 3.3-.6 6.3-1.3 8.1l3.52 3.39a3.8 3.8 0 0 0-.02.41s-.2-.3-.9-.5l-1.2-.2.5 1.4.8 2.4c.4 1 1 1.7 1 1.7.4-.4 1-.7 1.6-.7a2.1 2.1 0 0 1 1.66.66l-.06.04a1.9 1.9 0 0 1-.1 2.6h.1s.8.6 1.8 1l2.5.7 1.2.2a6.9 6.9 0 0 1-.5-1.6 5.9 5.9 0 0 0 3.6-1.6c-.9-.9-2.2-1.7-3.6-1.7l.4-.9.1-.7-1.2.3a8 8 0 0 0-2.5.7c-.65.22-1.28.63-1.6.85a8.2 8.2 0 0 0 .9-1.55l.8-2.4.5-1.4s-.5-.1-1.2.2c-.7.2-.9.5-.9.5a5.7 5.7 0 0 0-.1-.62l3.3-3.18c-.7-1.8-1.2-4.8-1.3-8.1v-1.1c0-.8-.02-1.56-.09-2.3a15 15 0 0 1 8.5-2.4c6.4 0 11.49 3.5 11.69 7.6a7 7 0 0 1 0 .9 7.4 7.4 0 0 1-3.6 6.3l2 3.2 1.3-1-.03-.05a9.1 9.1 0 0 0 4.03-7.25c0-1.53-.48-3-1.33-4.31a25.4 25.4 0 0 1 4.93-.39c7 0 12.8 2.7 14.4 6.3.5 1 .7 2 .7 3.1a7.3 7.3 0 0 1-2.6 5.6l2.5 4.1 1.3-1-1.7-2.8 1.6 2.5a10.4 10.4 0 0 0 2.3-6.5c0-3.56-2.06-6.73-5.27-9-3.04-2.39-7.83-3.9-13.23-3.9a29 29 0 0 0-6 .6l.07.1a12.8 12.8 0 0 0-2.97-2.4c-2.44-1.95-6.02-3.2-10.1-3.2a17.4 17.4 0 0 0-8.7 2.1 23 23 0 0 1 .04.35l-.14-.75c-.3-1.5-1.8-2.6-3.5-2.6m-1.5 24.9s-.8-.7-1.8-1c-.7-.4-2-.7-2.5-.7l-1.2-.2.2.6.4.9a5.9 5.9 0 0 0-3.7 1.7c1 .9 2.3 1.6 3.7 1.6l-.4 1-.2.6 1.2-.2c.4-.1 1.8-.4 2.5-.7 1-.4 1.9-1 1.9-1v-.1a2 2 0 0 1-.5-1.2c0-.5.1-1 .4-1.3m-21.8 2.3s-.9-.5-1.8-.7c-.7-.2-2-.2-2.3-.2h-1l.2.5c.2.5.5.7.5.7a5 5 0 0 0-3 2 5.3 5.3 0 0 0 3.5 1l-.2.8v.6l1-.4c.3-.1 1.5-.5 2-1 .8-.4 1.5-1.1 1.5-1.1h-.1a1.8 1.8 0 0 1-.6-1c0-.5 0-.9.3-1.2m49.01-17a8.5 8.5 0 0 1 .1.7 8.9 8.9 0 0 1-.07.32 8.9 8.9 0 0 0-.03-1.03m-72.5 2.1c-.14.23-.3.46-.4.7-.15.24-.25.49-.36.73a8.6 8.6 0 0 1 .25-.73 10.5 10.5 0 0 1 .5-.7m-1.4 4.5a8.8 8.8 0 0 0 .37 2.53 8.5 8.5 0 0 1-.38-2.53m71.89 2.7a5.2 5.2 0 0 0-2.2 3l-.7-.6c-.6-.3-1-.3-1-.3l.2 1.3c0 .3 0 1.3.3 2.2.2 1 .6 1.6.6 1.6a2 2 0 0 1 1.5-.4c.6.1 1 .5 1.3.9l1.1-1.3c.6-.8 1-1.7 1.1-2l.7-1.1s-.4-.2-1 0c-.7 0-1 .2-1 .2a4.9 4.9 0 0 0-1-3.4zm0 7.7a1.6 1.6 0 0 1 .2 1.2c-.1.4-.3.7-.6 1 0 0 .6.7 1.4 1.1.6.5 1.7.9 2 1l1 .4v-.6l-.2-.8a5.3 5.3 0 0 0 3.5-1 5 5 0 0 0-2.9-2 6.2 6.2 0 0 0 .4-.7l.3-.5h-1.1c-.3 0-1.6 0-2.3.2-.9.2-1.7.7-1.7.7m-39.8-3-1.1.4a10 10 0 0 0-2 .9l-1.4 1.3a1.7 1.7 0 0 1 .6 1 1.6 1.6 0 0 1-.2 1.1 11 11 0 0 0 1.8.7c.7.2 1.9.2 2.3.2h1a6.4 6.4 0 0 1-.7-1.2 5 5 0 0 0 2.9-2 5 5 0 0 0-3.4-1 5.7 5.7 0 0 0 .2-.8zm32.6 0v.6c0 .5.2.8.2.8a5.2 5.2 0 0 0-3.5 1c.7.9 1.7 1.7 3 2 0 0-.3.2-.5.7l-.3.5h1c.4 0 1.7 0 2.3-.2a11.1 11.1 0 0 0 1.8-.7 1.7 1.7 0 0 1-.2-1.1c0-.5.3-.8.6-1 0 0-.6-.8-1.4-1.3-.6-.4-1.7-.8-2-.9a171.4 171.4 0 0 1-1-.4m-62.4 2.5a2.8 2.8 0 0 0-2.8 2.8s2.1-.2 3.3.5c1.3.7 2.3 2.7 2.3 2.7l.2-.3c.5-.5 1.5-.4 2.2.3l.1.07-.2 1.63s1.8 2.8 3.8 4c1.1.6 2.8 1.3 4 1.1 1.5-.3 2.4-1.4 3-2.7a6.7 6.7 0 0 0 3.4 1 6.5 6.5 0 0 0 6-3.7 7 7 0 0 0 5 2.14 121 121 0 0 0-17.7 3.36 1 1 0 0 0-.7 1.3 1 1 0 0 0 1.3.6s1.4-.1 2.4 2.4c.69 1.72.85 2.47.5 2.84-.44.23-.7.7-.7 1.16a1.1 1.1 0 0 0 .8 1.2c7.5 2.2 18.1 3.6 29.9 3.6 11.8 0 22.3-1.4 29.8-3.6a1.3 1.3 0 0 0 0-2.4 59.5 59.5 0 0 0 .4.1c-.6-.2-.6-1 .2-3 .92-2.22 2.22-2.3 2.42-2.3.5.19 1.08-.1 1.28-.6.2-.5-.1-1.1-.7-1.3a81.91 81.91 0 0 0-8.3-1.99 6.5 6.5 0 0 0 1.7.19 6.7 6.7 0 0 0 3.3-1c.6 1.3 1.6 2.4 3 2.6 1.3.3 3-.4 4-1 2-1.2 3.8-4 3.8-4l-.2-1.66.1-.14c.7-.6 1.8-.7 2.3-.2l.1.2s1-2 2.3-2.6c1.3-.7 3.4-.5 3.4-.5a2.8 2.8 0 0 0-2.9-2.8 3 3 0 0 0-2.4 1l-.2-1s-1.3.3-1.9 1.8c-.6 1.5 0 3.6 0 3.6s-.3-.9-.7-1.5a8 8 0 0 0-2.4-1.6l-1.3-.7-.1.5a5 5 0 0 0 0 .8 7.9 7.9 0 0 0-3.7.5 4.7 4.7 0 0 0 2.5 2.2l-.8.7a4 4 0 0 0-.4.5l1.3.2 2.5.2a14.5 14.5 0 0 0 1.3-.15c-.56.55-1.32 1.26-2.3 2.05-2.3 1.7-4 1.6-4 1.6-1.4-.2-2-1.5-2-3v-1.5l-.9 1.2c-.8 1.2-2.2 1.9-3.8 1.9a4.4 4.4 0 0 1-4.5-4.2 4 4 0 0 1 .4-1.9l-.7-2-1.5 1.5a4.6 4.6 0 0 1-4.7 5c-2.3 0-4.4-1.5-4.7-3.8-.1.1 0-1.7-.2-1.7s-.6 1.7-.7 1.7a4.7 4.7 0 0 1-4.4 3 4.6 4.6 0 0 1-4.5-6l-1.2-.2-1.2.2a4.6 4.6 0 0 1-4.5 6 4.7 4.7 0 0 1-4.5-3.1c-.1.1-.5-1.6-.7-1.6-.2.1-.2 1.7-.2 1.7-.3 2.3-2.3 3.8-4.7 3.8-2.6 0-4.6-2-4.6-4.4a4.4 4.4 0 0 1 0-.6l-1.5-1.5-.8 1.9a4 4 0 0 1 .4 2c0 2.3-2 4.3-4.5 4.3a4.6 4.6 0 0 1-3.7-2l-1-1.2v1.5c0 1.5-.6 2.8-2 3 0 0-1.7.2-3.9-1.6-1.02-.8-1.8-1.5-2.38-2.05a14.7 14.7 0 0 0 1.28.15l2.6-.2 1.2-.2-.4-.5-.8-.7a4.7 4.7 0 0 0 2.5-2.2 7.9 7.9 0 0 0-3.7-.5v-1.3l-1.3.7a8 8 0 0 0-2.4 1.6c-.5.6-.8 1.5-.8 1.5s.6-2.1.1-3.6c-.7-1.5-2-1.8-2-1.8l-.2 1c-.5-.6-1.4-1-2.4-1m46.1 5.9a6.9 6.9 0 0 0 4.68 2.88 153.1 153.1 0 0 0-4.78-.08 121 121 0 0 0-4.44.06 6.9 6.9 0 0 0 4.54-2.86m-10.4 1.2a7 7 0 0 0 3.77 1.69 121 121 0 0 0-7.48.53 7 7 0 0 0 3.71-2.22m20.7 0a7 7 0 0 0 4.27 2.32c-2.7-.27-5.5-.47-8.38-.59a7 7 0 0 0 4.11-1.73m10.4.3a6.5 6.5 0 0 0 4.17 3.47c-2.85-.54-5.93-.98-9.17-1.33a7 7 0 0 0 5-2.14m-92.5 3.4v.5h-.7v.6h.7v.73a.91.91 0 0 0-.53.47h-.47v.6h.44c.02.08.05.16.1.23-.38.4-.64 1.12-.64 1.97 0 .87.2 1.63.54 2.07l.49 1.08a.5.5 0 0 0-.01 0l-1.12-.25-.4.6-.5-.7c-1.7-2.6-4.1-4.3-5.2-3.6-.3.1-.4.4-.5.7.37-.28 1.44.66 2.63 2.17l-.63.63.75.83a.44.44 0 0 0-.1.15l-1.05-.08-.3.6h.1l.4.5 1-.5a.5.5 0 0 0 .2.1.9.9 0 0 1 0 .4 1 1 0 0 1-1 1c-.38 0-.67-.18-.87-.45.07-.07.07-.21.07-.35-.1-.2-.2-.2-.4-.2l-.1.3c.05.16.14.23.2.27v.03c0 .3-.1.7-.4.7 0 0-.4 0-.9-.4l-.53-.47.93-.13v-.6l-.6-.4-.94.85a.3.3 0 0 0-.16.04v-.7c-.1-.3-.4-.29-.4-.29v.2a.5.5 0 0 0-.4-.2c-.3 0-.6.2-.6.3 0 0 .5.1.7.3l.6.7c.05.08.12.16.2.2l.38.07.92.93c.3.2.6.2.9.2l.15-.03.05.13a27 27 0 0 1 2.6-.55 27 27 0 0 0-2.9.65l-.1.3.3.2c1.6-.53 3.83-.9 6.35-.99a27.3 27.3 0 0 0-6.35 1l.5 1 .3.59c1.14-.44 3.3-.72 5.56-.79-2.17.07-4.24.35-5.46.79-.2 0-.3.2-.4.3 0 .4.3.7 1 .9.54.1 1.5.27 2.65.4H124v5.5h2.6v.1c-.5 0-1 .3-1 .6 0 .4.5.6 1 .6a1.4 1.4 0 0 1-.4 0c.6.2 1 .7 1 1.3a1.3 1.3 0 0 1-.84 1.13c-.4.1-.76.43-.76.77 0 .4.5.8 1 .8h16c.6 0 1-.4 1-.8s-.4-.7-1-.7h.5a1.4 1.4 0 0 1-1-1.2c0-.6.5-1.1 1-1.3a1.7 1.7 0 0 1-.4 0h-.1c.6 0 1-.2 1-.6 0-.3-.4-.7-1-.7h2.8v-5.5h-7.53a28 28 0 0 0 2.63-.4c.6-.2 1-.5 1-.8 0-.2-.2-.3-.4-.4a6.46 6.46 0 0 0-.27-.09 22.9 22.9 0 0 1 .37.09 5.7 5.7 0 0 1 .3-.8l.5-.8.3-.2c.1-.1-.1-.3-.1-.3l-.18-.05.05-.15h.03c.3.1.6-.1.8-.3.35-.14.7-.57.87-.81l.43-.09c.1-.05.16-.17.17-.28l.53-.62c.2-.2.7-.3.7-.3 0-.1-.3-.3-.6-.3a.6.6 0 0 0-.4.2v-.2s-.3 0-.4.3v.66a.29.29 0 0 0-.15 0l-.95-.86-.6.4.1.6 1.04.16-.44.44c-.6.4-1 .4-1 .4-.3-.1-.4-.4-.4-.7v-.03c.07-.04.15-.11.2-.27l-.1-.3c-.2 0-.3 0-.4.2 0 .14 0 .28.06.35-.2.27-.48.45-.86.45a1 1 0 0 1-1-1 .9.9 0 0 1 .1-.4l-.01-.03a.5.5 0 0 0 .12-.07l.99.5.5-.5-.3-.6-1.05.08a.5.5 0 0 0-.1-.14l.75-.84-.63-.63c1.2-1.5 2.26-2.45 2.63-2.17-.1-.3-.2-.6-.5-.7-1.1-.7-3.4.9-5.2 3.6l-.4.7h-.2l-.3-.6-1.1.25a.46.46 0 0 0-.09-.06l.59-1.09-.03-.02c.33-.44.53-1.13.53-1.88 0-.9-.25-1.63-.63-2.04a.9.9 0 0 0 .17-.26h.36v-.6h-.4c-.14-.2-.37-.36-.6-.44V203h.6v-.6h-.6v-.5zm66.93.07c-9.36.28-17.93 1.36-24.76 3.04 6.82-1.68 15.35-2.77 24.76-3.04m19.34.6a99.7 99.7 0 0 1 17.87 3.2 123 123 0 0 0-17.87-3.2m56.73.13v.6h-.5v.5h.5v.9a.77.77 0 0 0-.35.4h-.45v.6h.49a.9.9 0 0 0 .1.16 2.42 2.42 0 0 0-.19 3.15l.52 1.13-.01.01-1.11-.25-.4.6.4.5 1.08-.33a.5.5 0 0 0 .12.13 1 1 0 0 1 0 .3c0 .6-.5 1-1.1 1-.38 0-.77-.28-.97-.65l.17-.35-.3-.3c-.2 0-.2.2-.2.4 0 .06.03.15.1.21-.1.6-.5.9-1.1.9a1 1 0 0 1-1-1v-.1a.5.5 0 0 0 .11-.11h1.09l.3-.6-.5-.5-1 .5a.5.5 0 0 0-.06-.04l.16-1.06-.8-.3v-.1l-.7.7.75.83a.44.44 0 0 0-.1.15l-1.05-.08-.3.6.5.5 1-.5a.5.5 0 0 0 .2.1 1 1 0 0 1 0 .4 1 1 0 0 1-1 1c-.39 0-.68-.19-.88-.48l.08-.32c-.1-.2-.2-.2-.4-.2l-.1.3c.06.18.12.25.2.28v.02c0 .3-.1.7-.4.7 0 0-.4 0-.9-.4l-.53-.47.93-.13v-.6l-.6-.4-.94.85a.3.3 0 0 0-.16.04v-.7c-.1-.3-.4-.29-.4-.29v.2c-.1-.2-.2-.2-.4-.2-.3 0-.6.2-.6.3a2.3 2.3 0 0 1 .7.3l.6.7c.02.08.06.16.1.2l.48.1a4.2 4.2 0 0 0 .92.9c.3.2.6.2.9.2a.5.5 0 0 0 .17-.04l.03.14a27 27 0 0 1 .4-.1l-.7.2-.1.3.3.2c1.54-.51 3.67-.88 6.07-.97a27.4 27.4 0 0 0-6.07.97 4.5 4.5 0 0 1 .5 1l.2.6c1.23-.44 3.4-.72 5.67-.79-2.18.07-4.24.35-5.47.79-.2 0-.3.2-.4.3 0 .4.3.7 1 .9.54.1 1.5.27 2.64.4h-7.44v5.5h2.7v.1c-.6 0-1 .3-1 .6 0 .4.4.6 1 .6h-.5c.6.2 1 .7 1 1.3 0 .5-.4 1-1 1.2h.06c-.31.14-.56.42-.56.7 0 .4.4.8 1 .8h16c.6 0 1-.4 1-.8s-.4-.7-1-.7a1 1 0 0 1 .4 0c-.6-.2-1-.7-1-1.2 0-.6.4-1.1 1-1.3h-.4c.6 0 1-.2 1-.6 0-.3-.4-.7-1-.7h2.7v-5.5h-7.53a28 28 0 0 0 2.63-.4c.6-.2 1-.5 1-.8 0-.2-.2-.3-.4-.4a24.1 24.1 0 0 0-6.5-.8 22.9 22.9 0 0 1 6.6.8 5.2 5.2 0 0 1 .3-.8l.6-.8a27.4 27.4 0 0 0-.07-.02l.27-.18c.1-.1-.1-.3-.1-.3l-.18-.05.05-.15h.03c.3.1.6-.1.8-.3.35-.14.69-.57.87-.81l.43-.09c.1-.05.16-.17.16-.28l.54-.62c.2-.2.7-.3.7-.3 0-.1-.3-.3-.6-.3a.6.6 0 0 0-.4.2v-.2s-.3 0-.4.3v.68a.21.21 0 0 0-.15-.03l-.95-.85-.6.4v.6l1.15.16a.3.3 0 0 0-.02.1c-.1.1-.24.21-.43.34-.6.4-1 .4-1 .4-.3-.1-.4-.4-.4-.7v-.02c.08-.03.14-.1.2-.28l-.1-.3c-.2 0-.3 0-.4.2l.08.32c-.2.29-.5.48-.88.48a1 1 0 0 1-1-1 1 1 0 0 1 .1-.4v-.02a.48.48 0 0 0 .15-.06l.95.48.5-.5-.3-.6-1.04.08a.44.44 0 0 0-.1-.15l.74-.83-.7-.7v.1l-.8.3.24 1.04a.59.59 0 0 0-.13.07l-1.01-.51-.5.5.3.6h1.1a.5.5 0 0 0 .04.06l-.04.04a.7.7 0 0 1 0 .1c0 .6-.4 1-1 1-.5 0-1-.3-1.1-.8l.3-.3c0-.2-.1-.4-.3-.4 0 0-.2.1-.2.3 0 .1 0 .2.02.27l-.02.03a1 1 0 0 1-1 .7 1 1 0 0 1-1-1 1 1 0 0 1-.01-.26c.06-.04.1-.1.14-.17l1.07.33.3-.5h.1l-.4-.6-1.11.24-.01-.01.52-1.13-.03-.02c.27-.33.43-.82.43-1.38 0-.64-.2-1.28-.56-1.65a.76.76 0 0 0 .2-.25h.26v-.6h-.28a1.06 1.06 0 0 0-.62-.45v-.75h.6v-.6h-.6v-.6h-.1zm-.9 4.85v-.05.1zm-70.5-.15.1.1a109 109 0 0 0-15.16.83 108 108 0 0 1 15.06-.93m-71.4 5.9a27.3 27.3 0 0 1 .17 0 27.3 27.3 0 0 0-.7 0zm98.28 6.64a.77.77 0 0 0-.28.06l.4.4.16.58-.06.02v.1l.1.3s.2.7.1 1.2c0 .6-.3 1.2-.3 1.2a9 9 0 0 1 2.9 1.6 9 9 0 0 1 2.2 2.3l1.2-.5c.6-.2 1.3-.2 1.3-.2l.02-.02.18.12v-.1h.8l.5.3s.1-.4-.3-.7c-.3-.3-.8.2-.8.2l-.02.02-.08-.82-.6.1-.3.5.33.2c-.45 0-1.03-.05-1.03-.4v-.2a.7.7 0 0 1-.2 0c-.2-.2-.2-.4 0-.7l.2-.1v-.03l.2.53.5-.1h.1l.1-.5-.62-.23.72-.27-.1-.5-.5-.2-.36.73-.24-.63-.5.1-.2.5.66.22a.3.3 0 0 0 0 .08H239l-.2.1c-.2.3-.6.3-.8 0a.4.4 0 0 1-.1-.4.6.6 0 0 1-.5 0c-.2-.2-.3-.5 0-.8l.2-.3v-.02l.3.52.5-.2.1-.5-.7-.15.7-.35-.2-.5h-.5l-.28.66-.32-.56-.5.2v.5l.57.14a1.5 1.5 0 0 1-.27.36c-.2.2-.6.2-.8 0a.5.5 0 0 1-.1-.4.5.5 0 0 1-.5 0c-.3-.1-.3-.5-.1-.7v-.36a.3.3 0 0 0 .02 0l.48.56.4-.3h.1v-.5h-.76a.3.3 0 0 0-.01-.02l.67-.48-.3-.5h-.5l-.09.78-.41-.58-.5.3v.5l.71.08a.3.3 0 0 0 .01.02h-.12l-.1.2c-.2.3-.5.3-.7.2a.6.6 0 0 1 0-.2h-.3c-.4.16-.6-.57-.67-.97l.37.37.4-.4v-.4h-.8s.4-.6 0-.9a.79.79 0 0 0-.52-.16M179 222.6v3.6h1.7v7.8H177.4v-2.5h1.6V228h-1.6v.9h-.9v-1h-1.8v1h-1v-1h-1.5v3.6h1.6v2.5h-3.4v7h1.8v14.3h-3.5v7.3h23.47a17.77 17.77 0 0 1 3.73-5.8v-1.5h-3.5V241h1.8v-7h-3.4v-2.5h1.6V228h-1.6v.9h-.8v-1h-1.6v1h-1.1v-1h-1.6v3.6h1.6v2.5H184v-7.8H185.7v-3.5H184v.9h-1v-1h-1.5v1h-.9v-1zm-37 25.1a54.8 54.8 0 0 1-1.8 4.6l-2.4-4.3-1 .1h-1a131.4 131.4 0 0 1 3.5 6h1c.8-2.2 1.7-4.3 2.7-6.4a5.3 5.3 0 0 1-1 0m123.5.1a5.2 5.2 0 0 1-.5.1 52.8 52.8 0 0 1-1.4 4.8c-1-1.4-2-2.7-2.7-4.1l-1 .2h-1a131.3 131.3 0 0 1 4 5.7h.5l.5-.1c.6-2.3 1.4-4.4 2.1-6.6zm2.6 0v6.2h4.2v-.7h-2.6l.1-5.5h-.9a8 8 0 0 1-.8 0m-120.61.1c-1.51-.01-2.4.67-2.49 1.7-.2 2.1 3.2 2 3 3.4 0 .6-.7.9-1.4.8-.8 0-1.4-.5-1.4-1.2h-.3a7.3 7.3 0 0 1-.4 1.1 4 4 0 0 0 1.8.6c1.7.2 3-.5 3.2-1.7.2-2-3.3-2.1-3.1-3.4 0-.5.4-.8 1.3-.7.7 0 1 .4 1.2.9h.2l.4-.9a3.4 3.4 0 0 0-1.7-.6zm125.31 0v.8a19.3 19.3 0 0 1 2 0l-.4 5.6h1.6l.5-5.4.1-.1 2 .3v-.7zm-140.9.9-.9.3h-.8l1.3 6.1 4.3-.8-.2-.4v-.4l-2.5.6-1.2-5.3zm148.4.1-1.4 6c.3 0 .5 0 .8.2l.8.2.7-2.9.6 1.2.8 2.1 1 .2c.4 0 .7.2 1 .3l-.3-.7c-.4-1-1-1.9-1.3-2.9 1 0 1.9-.3 2.1-1.2.1-.6 0-1-.7-1.5-.4-.3-1.2-.4-1.7-.5zm1.6.8c.7.2 1.5.3 1.5 1v.5c-.3.9-1 1.2-2 .9zm-155 .45c-.4 0-.87.1-1.4.25l-2.6 1 2.3 5.8.8-.3.8-.3-1-2.5v-.1c1.9-.6 3.1-1.5 2.5-3-.25-.62-.73-.86-1.4-.85m-1.2.8c.42.02.85.33 1 .85.2.5.2 1-.5 1.5a4.4 4.4 0 0 1-.6.3l-1-2.3.7-.3a.89.89 0 0 1 .4-.06m165.5 1.45-6.1 3.8.5.3.4.2 1.7-1.2 2.2 1.24-.2 1.96.8.5.9.5.5-7a3.4 3.4 0 0 1-.7-.3m-1 1.4-.2 2.3-1.72-.96zm-121.6 15v52.1c1.5.8 3.6 2 5.8 2.6l-.1-54.7zm10.8 0v55.9a26.6 26.6 0 0 0 5.6 0v-55.9zm10.6 0-.1 54.7h.1a19 19 0 0 0 5.8-2.5v-38.36a18.47 18.47 0 0 1-4.97-13.84zm-31.9.3v32.5h-.1a24.4 24.4 0 0 0 5.5 15v-47.5zm72.1 5.2a2.6 2.6 0 0 0-2.5 1.7h-2.63l.03.1h-1.4v1.6h-2.6v-1.6h2.6v-.1h1.37l-.47-1.5h-3.17a18.57 18.57 0 0 1-1.55 4.1l.22.7h4.5l.5-1.6h2.6a2.6 2.6 0 0 0 1.7 1.6v1.8l-1.7.5v4.3l1.7.5v6l-.2.1-4.06-4.55.96-1.35-2.9-3.3-1.6.7.25.29.65.71-.02.01 1.68 1.92-1.16.97 5 5.7a2.4 2.4 0 0 0-.2.3h-2.6l-.5-1.6h-4.5l-.5 1.6h-3.1c-.2-.7-.9-1.3-1.7-1.6v-3.9l1.7-.5v-4.3l-.48-.11c-.4.35-.8.68-1.22.98V287h-1.6v-1.5c-.55.3-1.12.57-1.7.8v1.6l1.7.5v3.8c-.77.39-1.54.96-1.77 1.9h-.03a2.5 2.5 0 0 0 1.8 2.9v2.5l-1.7.6.3 4.3 1.6.3c-.07-.31-.1-.61-.14-.91a15.3 15.3 0 0 0 1.24 4.4l-.1.11a2.4 2.4 0 0 0 .3 3.5c.7.5 1.6.7 2.5.5a16.6 16.6 0 0 0 2.4 2.2l-.4 1.7a18.7 18.7 0 0 0 4 2l1.2-1.1a17.4 17.4 0 0 1-.82-.34 17.5 17.5 0 0 0 4.12 1.04 2.6 2.6 0 0 0 2.5 2 2.6 2.6 0 0 0 2.6-2 17.6 17.6 0 0 0 3.73-1 17.4 17.4 0 0 0 .55-.23l-.78-1.37a15.6 15.6 0 0 1-.32.1 15.7 15.7 0 0 0 3.41-1.96 15 15 0 0 1-.8.66l.78 1.34a17.4 17.4 0 0 1-2.29 1.23l.02.03a17.6 17.6 0 0 1-.57.2 17.4 17.4 0 0 1-.73.3l1.2 1.1a18.6 18.6 0 0 0 4-2l-.4-1.7a16.7 16.7 0 0 0 2.4-2.2c.9.2 1.8 0 2.5-.5a2.4 2.4 0 0 0 .3-3.5l-.1-.1a15 15 0 0 0 1.1-3.5 15 15 0 0 0 .15-.98c-.03.33-.07.65-.13.98l1.58-.3.3-4.3-1.7-.6V297a2.5 2.5 0 0 0 1.8-2.4 2 2 0 0 0 0-.5h-.03c-.22-.94-.9-1.51-1.77-1.9v-3.8l1.7-.5v-4.3l-1.6-.38v-4.02h-.1a2.5 2.5 0 0 0 1.9-2.4 2.6 2.6 0 0 0-2.7-2.5 2.6 2.6 0 0 0-2.4 1.7h-3.03l-.47-1.5h-4.6l-.47 1.5h-2.63c-.3-1-1.3-1.7-2.5-1.7m16.72 30.4h-.02v.1zM222.48 285l-.63-.72-3.25-3.58c-.31.43-.63.85-.97 1.24l3.5 3.97-.83-.92-1 1.4 3 3.3 1.6-.7-2.7-3zm14.22-8.91h2.7v1.6h-4.1l.5 1.6h4.6l.5-1.6h3l.1.3-5.27 5.87.07.03-.94 1.05 1.24.95 6-6.8a2.5 2.5 0 0 0 .4.2v3.9l-1.7.4v4.3l1.7.5v3.9c-.8.3-1.4.8-1.7 1.6h-3l-.5-1.6h-4.5l-.5 1.6h-2.5l-.3-.6 4.9-5.5-1.2-1-4.9 5.5h-.3V285h-1.6v-2.5h1.7v3.8l1.6-.5v-4.3l-1.6-.5v-1.8a2.5 2.5 0 0 0 1.6-1.6h4zm1.16 8.85-.06-.05.93-1.03-1.53-.67-3 3.3 1 1.4zm7.64-.45h1.6v2.5h-1.6zm-5.5.4-3.5 4 1.5.7 3-3.3zm-38.96 1.34.06 29.67c2.36-2.05 4.51-6.78 5.3-12.1l.05-16.51h-.05c-1.88 0-3.69-.37-5.36-1.06m.06 29.67-.1.09.1.1zM214 293.6a1.2 1.2 0 0 1 1 .6h.12l.08.4c0 .6-.5 1-1.1 1a1 1 0 0 1-1.1-1v-.4c.3-.3.6-.6 1-.6m32.3 0c.5 0 .8.3 1 .6h.02l.08.4c0 .6-.5 1-1 1-.7 0-1.2-.4-1.2-1a1 1 0 0 1 .08-.4h.02a1.1 1.1 0 0 1 1-.6m-25.3.3h2.7v.3h.1v1.2h1.4l-.03.1h2.63a2.1 2.1 0 0 0 .2.4l-4.7 5.3 1.2 1 .41-.45.59-.65 3.8-4.1h.2v7.3l-1.7.5v4.3l1.7.4v5.4a2.5 2.5 0 0 0-1.5 1.3c-.93-.07-1.82-.27-2.69-.55v.05a15.7 15.7 0 0 1-.8-.32l-.51-.18-.78 1.37a17.4 17.4 0 0 1-2.29-1.22l.77-1.35a15.2 15.2 0 0 1-.8-.68 15.7 15.7 0 0 0 3.61 2.06c.27.1.53.19.8.27l.39-1.55a13.7 13.7 0 0 1-4-2l-1.14.95a15.2 15.2 0 0 1-1.96-1.65c.6-.8.6-1.9.1-2.8l4.06-4.46-.86.96 1.6.7 3-3.3-1-1.4-.59.65-2.1 2.35-1.31-1 2.7-3-1.6-.7-3 3.3 1 1.4-3.2 3.5c-.4-.2-.9-.2-1.4-.2a13.1 13.1 0 0 1-.78-2.7l1.68-.6s-.3-2.9-.3-2.1v-2.2l-1.7-.4V297a2.6 2.6 0 0 0 1.7-1.6h3.1l.5 1.6h4.5l.47-1.5h-1.37v-.1H221v-1.2zm15.8 0h2.6v1.5h-2.6V294zm-4 1.5h2.5l.5 1.6h4.5l.5-1.6h3c.3.8.9 1.4 1.7 1.6v2.4l-1.7.4v2.2c0-.8-.3 2.1-.3 2.1l1.68.6a13.3 13.3 0 0 1-.78 2.7 3 3 0 0 0-1.4.2l-3.2-3.5 1-1.4-3-3.3-1.6.7 2.7 3-1.28.99.62.71 3.46 3.8a2.4 2.4 0 0 0 .1 2.8 15 15 0 0 1-1.96 1.65l-1.14-.95a13.7 13.7 0 0 1-4 2l.39 1.54a15.6 15.6 0 0 1-2.4.56v.1c-.3-.7-.89-1.2-1.59-1.4v-5.4l1.7-.4v-4.3l-1.7-.5V297l.2-.1 3.67 4.23-.97 1.37 2.9 3.3 1.6-.7-.26-.3-.64-.7.02-.01-1.68-1.92 1.16-.97-4.6-5.2a2.5 2.5 0 0 0 .3-.6m-19.5 5.5h1.6v1.1a14 14 0 0 0 .1 1.4h-1.67c-.03-.44-.03-.9-.03-1.4zm32.2 0h1.6v1.1c0 .49 0 .95-.02 1.4h-1.68a13.3 13.3 0 0 1-.17.99l.27-2.39zm-16 4.8h1.6v2.5h-1.6zm-102.9.8c-.5 0-1 .3-1 .7 0 .5.5.8 1 .8a1.4 1.4 0 0 1-.4 0l.2.5c0 1.24-.88 2.2-1.98 2.5h-.72V316.7h22V311h-.71a2.7 2.7 0 0 1-1.99-2.5v-.5a1.3 1.3 0 0 1-.3 0h-.1c.6 0 1-.3 1-.7 0-.5-.4-.8-1-.8zm143.3 0c-.5 0-1 .3-1 .7 0 .5.4.8 1 .8h-.4l.1.5c0 1.16-.83 2.19-1.97 2.5h-.73V316.7h22V311h-.76a2.56 2.56 0 0 1-1.94-2.5l.1-.5h-.4c.6 0 1-.3 1-.7 0-.5-.4-.8-1-.8z" stroke-width="4" stroke="rgba(0,0,0,0)" fill="#c7b300" ></path><path d="M238.1 227.5v1.4c.2.6-.1 1.2 0 1.5 0 .4.1.6.3.9l.2.9-.7-.5-.6-.4v1c.1.2.3.8.6 1.1l1 1.3c.2.5.1 1.4.1 1.4s-.4-.7-.8-.8l-1.2-.7s.7.8.7 1.5c0 .8-.3 1.6-.3 1.6s-.3-.7-.8-1.1l-1-.9s.4 1.2.4 2v2.3l-.9-1-1-.7c0-.2.5.6.6 1.1 0 .5.3 2.3 1.8 4.5 1 1.3 2.3 3.6 5.3 2.9 3-.8 1.9-4.8 1.3-6.7a16.8 16.8 0 0 1-1-4.6c0-.8.6-2.9.5-3.3a8 8 0 0 1 .2-3.1c.4-1.3.7-1.8.9-2.3.2-.6.4-.9.4-1.3l.1-1.3.7 1.3.1 1.5s.1-1 1-1.6c.8-.6 1.8-1.1 2-1.4.3-.3.3-.5.3-.5s0 1.8-.6 2.6l-1.7 2s.7-.3 1.2-.3h.9s-.6.4-1.4 1.6c-.8 1-.5 1.2-1 2.1-.6 1-1 1-1.7 1.5-1 .8-.5 4.2-.4 4.7.2.5 2 4.5 2 5.5s.2 3.2-1.5 4.6c-1.1 1-3 1-3.4 1.2-.4.3-1.2 1.1-1.2 2.8 0 1.7.6 2 1 2.4.6.5 1.2.2 1.3.6.2.3.2.5.5.7.2.2.3.4.2.8 0 .3-.8 1.1-1.1 1.7l-.8 2.4c0 .2-.1 1 .1 1.3 0 0 .9 1 .3 1.2-.4.2-.8-.2-1-.2l-.9.5c-.3-.1-.3-.3-.4-.8l-.1-.7c-.2 0-.3.2-.4.5 0 .2 0 .8-.3.8-.2 0-.5-.4-.8-.5-.2 0-.8-.2-.8-.4 0-.3.4-.9.7-1 .4 0 .8-.3.5-.5s-.5-.2-.7 0-.8 0-.7-.2v-.8c0-.2-.4-.5.1-.8.6-.3.8.2 1.4.1.6 0 .8-.3 1-.6.2-.3.2-1-.2-1.4-.4-.5-.7-.5-.9-.8l-.3-.9v2.2l-.7-.8c-.3-.3-.6-1.3-.6-1.3v1.3c0 .4.3.7.2.8-.1.1-.8-.7-1-.8a3.7 3.7 0 0 1-1-1l-.4-1.4a4.2 4.2 0 0 1 0-1.5l.4-1h-1.4c-.7 0-1.2-.3-1.5.2-.3.5-.2 1.5.2 2.8.3 1.2.5 1.9.4 2.1a3 3 0 0 1-.7.8h-.9a2.5 2.5 0 0 0-1.2-.3h-1.3l-1.1-.3c-.3.1-.8.3-.6.7.2.6-.2.7-.5.7l-.9-.2c-.4-.1-.9 0-.8-.4 0-.4.2-.4.4-.7.2-.3.2-.5 0-.5h-.6c-.2.2-.5.5-.8.4-.2-.1-.4-.4-.4-1s-.7-1.2 0-1.1c.5 0 1.3.4 1.4 0 .2-.3 0-.4-.2-.7s-.8-.4-.3-.7l.7-.5c.1-.2.4-.8.7-.6.6.2 0 .7.6 1.3.6.7 1 1 2 .8 1 0 1.3-.2 1.3-.5l-.1-1v-1s-.4.3-.5.6l-.4.8v-2a8 8 0 0 0-.2-.8l-.3.9-.1 1s-.7-.5-.5-1.5c.1-.7-.1-1.6.1-2 .2-.3.7-1.5 2-1.6h2.6l2-.3s-2.8-1.4-3.5-1.9a9.5 9.5 0 0 1-2-2l-.6-1.6s-.5 0-1 .3a5 5 0 0 0-1.2 1l-.7 1 .1-1.2v-.8s-.4 1.2-1 1.7l-1.4 1v-.8l.2-1s-.4.8-1.1 1c-.7 0-1.8 0-1.9.4 0 .5.2 1 0 1.4 0 .3-.4.5-.4.5l-.8-.4c-.4 0-.7.2-.7.2s-.3-.4-.2-.7c.1-.2.7-.6.5-.8l-.8.2c-.3.1-.8.3-.8-.2 0-.4.2-.7 0-1 0-.3 0-.5.2-.6l1.2-.1c0-.2-.2-.5-.8-.6-.6-.1-.8-.5-.5-.8.3-.2.3-.3.5-.6.1-.2.2-.7.7-.5.5.3.4.8 1 1a4 4 0 0 0 2-.2l1.5-1 1.5-1-1-.8c-.3-.3-.7-.9-1-1a8.3 8.3 0 0 0-1.8-.6 9 9 0 0 1-1.7-.5l.8-.3c.2-.2.6-.6.8-.6h.3-1.4c-.3-.1-1-.6-1.3-.6l-.8.1s.8-.4 1.4-.5l1-.1s-.9-.3-1.1-.6l-.6-1c-.2-.1-.3-.5-.6-.5l-1 .3c-.4 0-.6-.2-.6-.6l-.1-.5c-.2-.3-.6-.8-.2-1h1.4c0-.2-.5-.6-.8-.8-.4-.2-1-.5-.7-.8l.8-.5c.2-.3.3-1 .7-.7.4.2.8 1.2 1.1 1.1.3 0 .3-.8.3-1 0-.4 0-1 .2-.9.3 0 .5.4 1 .5.4 0 1-.1 1 .2 0 .3-.3.7-.6 1-.3.3-.4 1-.3 1.4.2.5.7 1.2 1.2 1.4.4.3 1.2.5 1.7.9.5.3 1.7 1.2 2.1 1.3l.8.4s.5-.2 1.1-.2c.7 0 2.1 0 2.6-.2.6-.2 1.3-.6 1-1-.1-.6-1.3-1-1.2-1.4 0-.4.5-.4 1.2-.4.8 0 1.8.1 2-1 .2-1 .2-1.5-.8-1.8-1-.2-1.8-.2-2-1-.2-.7-.4-.9-.2-1.1.3-.2.6-.3 1.4-.4.8 0 1.6 0 1.9-.2.2-.2.3-.7.6-.9.3-.2 1.4-.4 1.4-.4s1.4.7 2.7 1.7a15 15 0 0 1 2.2 2.1" stroke-width="4" stroke="rgba(0,0,0,0)" fill="#ed72aa" ></path><path d="M185.3 262.6v-4c0-.7-.5-2.7-3.1-2.7-2.4 0-2.9 2-2.9 2.7v4zm-6.9-12.7v-4.2c0-1-.6-2.2-2-2.2s-2 1.1-2 2.2v4.3h4zm7.8 0v-4.2c0-1 .7-2.2 2-2.2s2 1.1 2 2.2v4.3h-4z" stroke-width="4" stroke="rgba(0,0,0,0)" fill="#0039f0" ></path></g></g></svg>