<svg xmlns="http://www.w3.org/2000/svg" version="1.2" baseProfile="tiny" width="504" height="384" viewBox="24 24 252 192"><path d="M100,28 L172,100 100,172 28,100 100,28 Z" stroke-width="4" stroke="black" fill="rgb(255,128,128)" fill-opacity="1" ></path><path d="m 120,120 -40,0 -15,-25 15,0 5,-15 10,0 -5,15 45,0 z" stroke-width="3" stroke="none" fill="black" ></path><g transform="translate(192,140)" ><g transform="scale(0.09)" ><path d="M640 0H0v480h640z" stroke-width="4" stroke="rgba(0,0,0,0)" fill="#c1272d" ></path><path d="m320 160.46-5.56 17.13-12.33 37.96h-57.74l46.73 33.9-17.82 54.84L320 270.41l46.72 33.88-17.82-54.85 46.73-33.89h-57.74l-12.33-37.96zm0 37.88 5.6 17.21h-11.2zm-39.57 28.91h17.88l-3.41 10.5zm30.18 0h18.79l5.75 17.71-15.15 11-15.15-11zm31.08 0h17.88l-14.47 10.5zm-40.64 29.41 8.99 6.52-14.52 10.53zm37.9 0 5.53 17.05-14.52-10.53z" stroke-width="4" stroke="rgba(0,0,0,0)" fill="#006233" ></path></g></g></svg>