<svg xmlns="http://www.w3.org/2000/svg" version="1.2" baseProfile="tiny" width="929.3333333333333" height="236" viewBox="21 36 464.66666666666663 118"><path d="M25,50 l150,0 0,100 -150,0 z" stroke-width="4" stroke="black" fill="rgb(128,224,255)" fill-opacity="1" ></path><path d="m 99.79,81.61 c -1.05,0 -1.87,0.87 -1.87,1.98 0,0.79 0.45,1.46 1.05,1.76 l -3.59,6.44 -6.83,0.1 c 0,-1.05 -0.86,-1.91 -1.87,-1.91 -1.04,0 -1.86,0.86 -1.86,1.96 0,1.09 0.82,2.02 1.86,2.02 0.26,0 0.53,-0.11 0.75,-0.16 l 3.44,6.3 -3.51,6.4 c -0.23,-0.1 -0.45,-0.1 -0.68,-0.1 -1.04,0 -1.86,0.8 -1.86,1.9 0,1.1 0.82,2 1.86,2 1.05,0 1.87,-0.8 1.87,-2 0,0 0,0 0,-0.1 l 6.83,0.1 3.55,6.4 c -0.6,0.3 -1.01,0.9 -1.01,1.7 0,1 0.86,2 1.87,2 1.11,0 1.91,-0.9 1.91,-2 0,-0.8 -0.4,-1.4 -0.9,-1.7 l 3.6,-6.4 7,-0.1 c 0,0.1 0,0.1 0,0.1 0,1.1 0.9,2 1.8,2 1.1,0 2,-0.8 2,-2 0,-1.1 -0.9,-1.9 -2,-1.9 -0.2,0 -0.5,0 -0.7,0.1 l -3.6,-6.57 3.6,-6.4 c 0.2,0.1 0.5,0.21 0.7,0.21 1.1,0 2,-0.92 2,-2.02 0,-1.06 -0.9,-1.96 -2,-1.96 -1,0 -1.8,0.86 -1.8,1.96 0,0.1 0,0.11 0,0.11 h -7 l -3.6,-6.52 c 0.5,-0.33 0.9,-0.97 0.9,-1.68 0,-1.08 -0.8,-1.98 -1.91,-1.98 z" stroke-width="3" stroke="none" fill="black" ></path><path d="M85,48 85,40 115,40 115,48 100,46 Z" stroke-width="4" stroke="black" fill="black" ></path><text x="195" y="120" text-anchor="start" font-size="40" font-family="Arial" stroke-width="4" stroke="none" fill="black" >Guardia Civil</text></svg>